<mxfile host="Electron" modified="2024-09-08T20:24:59.337Z" agent="Mozilla/5.0 (X11; Linux x86_64) AppleWebKit/537.36 (KHTML, like Gecko) draw.io/24.6.4 Chrome/124.0.6367.207 Electron/30.0.6 Safari/537.36" etag="7Zg_fYdAgeMfLHFqIyoH" version="24.6.4" type="device">
  <diagram name="Страница — 1" id="3G-ick24V7VgKXnYvdTY">
    <mxGraphModel dx="1642" dy="986" grid="1" gridSize="10" guides="1" tooltips="1" connect="1" arrows="1" fold="1" page="1" pageScale="1" pageWidth="827" pageHeight="1169" math="0" shadow="0">
      <root>
        <mxCell id="0" />
        <mxCell id="1" parent="0" />
        <mxCell id="i4DZE0jsaXp2JOjDbHN6-8" style="edgeStyle=orthogonalEdgeStyle;rounded=0;orthogonalLoop=1;jettySize=auto;html=1;" parent="1" source="i4DZE0jsaXp2JOjDbHN6-1" target="i4DZE0jsaXp2JOjDbHN6-6" edge="1">
          <mxGeometry relative="1" as="geometry" />
        </mxCell>
        <mxCell id="i4DZE0jsaXp2JOjDbHN6-9" value="rest" style="edgeLabel;html=1;align=center;verticalAlign=middle;resizable=0;points=[];" parent="i4DZE0jsaXp2JOjDbHN6-8" vertex="1" connectable="0">
          <mxGeometry x="-0.0333" relative="1" as="geometry">
            <mxPoint as="offset" />
          </mxGeometry>
        </mxCell>
        <mxCell id="i4DZE0jsaXp2JOjDbHN6-1" value="frontend vue" style="ellipse;shape=cloud;whiteSpace=wrap;html=1;" parent="1" vertex="1">
          <mxGeometry x="170" y="240" width="120" height="80" as="geometry" />
        </mxCell>
        <mxCell id="i4DZE0jsaXp2JOjDbHN6-10" style="edgeStyle=orthogonalEdgeStyle;rounded=0;orthogonalLoop=1;jettySize=auto;html=1;" parent="1" source="i4DZE0jsaXp2JOjDbHN6-3" target="i4DZE0jsaXp2JOjDbHN6-7" edge="1">
          <mxGeometry relative="1" as="geometry" />
        </mxCell>
        <mxCell id="i4DZE0jsaXp2JOjDbHN6-11" value="grpc" style="edgeLabel;html=1;align=center;verticalAlign=middle;resizable=0;points=[];" parent="i4DZE0jsaXp2JOjDbHN6-10" vertex="1" connectable="0">
          <mxGeometry x="-0.0333" y="1" relative="1" as="geometry">
            <mxPoint as="offset" />
          </mxGeometry>
        </mxCell>
        <mxCell id="i4DZE0jsaXp2JOjDbHN6-3" value="cli rust" style="ellipse;shape=cloud;whiteSpace=wrap;html=1;" parent="1" vertex="1">
          <mxGeometry x="330" y="240" width="120" height="80" as="geometry" />
        </mxCell>
        <mxCell id="i4DZE0jsaXp2JOjDbHN6-4" value="bot python" style="ellipse;shape=cloud;whiteSpace=wrap;html=1;" parent="1" vertex="1">
          <mxGeometry x="480" y="320" width="120" height="80" as="geometry" />
        </mxCell>
        <mxCell id="1xobN1D2nv92VW4AulpK-7" style="edgeStyle=orthogonalEdgeStyle;rounded=0;orthogonalLoop=1;jettySize=auto;html=1;" edge="1" parent="1" source="i4DZE0jsaXp2JOjDbHN6-6" target="1xobN1D2nv92VW4AulpK-2">
          <mxGeometry relative="1" as="geometry" />
        </mxCell>
        <mxCell id="1xobN1D2nv92VW4AulpK-8" style="edgeStyle=orthogonalEdgeStyle;rounded=0;orthogonalLoop=1;jettySize=auto;html=1;" edge="1" parent="1" source="i4DZE0jsaXp2JOjDbHN6-6" target="1xobN1D2nv92VW4AulpK-1">
          <mxGeometry relative="1" as="geometry">
            <Array as="points">
              <mxPoint x="230" y="480" />
              <mxPoint x="390" y="480" />
            </Array>
          </mxGeometry>
        </mxCell>
        <mxCell id="i4DZE0jsaXp2JOjDbHN6-6" value="rest back python" style="whiteSpace=wrap;html=1;" parent="1" vertex="1">
          <mxGeometry x="170" y="380" width="120" height="60" as="geometry" />
        </mxCell>
        <mxCell id="1xobN1D2nv92VW4AulpK-9" style="edgeStyle=orthogonalEdgeStyle;rounded=0;orthogonalLoop=1;jettySize=auto;html=1;" edge="1" parent="1" source="i4DZE0jsaXp2JOjDbHN6-7" target="1xobN1D2nv92VW4AulpK-1">
          <mxGeometry relative="1" as="geometry" />
        </mxCell>
        <mxCell id="1xobN1D2nv92VW4AulpK-10" style="edgeStyle=orthogonalEdgeStyle;rounded=0;orthogonalLoop=1;jettySize=auto;html=1;" edge="1" parent="1" source="i4DZE0jsaXp2JOjDbHN6-7" target="1xobN1D2nv92VW4AulpK-2">
          <mxGeometry relative="1" as="geometry">
            <Array as="points">
              <mxPoint x="390" y="480" />
              <mxPoint x="230" y="480" />
            </Array>
          </mxGeometry>
        </mxCell>
        <mxCell id="1xobN1D2nv92VW4AulpK-14" value="rabbitmq" style="edgeLabel;html=1;align=center;verticalAlign=middle;resizable=0;points=[];" vertex="1" connectable="0" parent="1xobN1D2nv92VW4AulpK-10">
          <mxGeometry x="0.0065" relative="1" as="geometry">
            <mxPoint as="offset" />
          </mxGeometry>
        </mxCell>
        <mxCell id="i4DZE0jsaXp2JOjDbHN6-7" value="grpc back python" style="whiteSpace=wrap;html=1;" parent="1" vertex="1">
          <mxGeometry x="330" y="380" width="120" height="60" as="geometry" />
        </mxCell>
        <mxCell id="i4DZE0jsaXp2JOjDbHN6-12" value="core" style="whiteSpace=wrap;html=1;labelPosition=center;verticalLabelPosition=middle;align=center;verticalAlign=top;" parent="1" vertex="1">
          <mxGeometry x="120" y="610" width="390" height="270" as="geometry" />
        </mxCell>
        <mxCell id="i4DZE0jsaXp2JOjDbHN6-13" value="clients" style="text;html=1;align=center;verticalAlign=middle;resizable=0;points=[];autosize=1;strokeColor=none;fillColor=none;" parent="1" vertex="1">
          <mxGeometry x="100" y="265" width="60" height="30" as="geometry" />
        </mxCell>
        <mxCell id="i4DZE0jsaXp2JOjDbHN6-14" value="servers" style="text;html=1;align=center;verticalAlign=middle;resizable=0;points=[];autosize=1;strokeColor=none;fillColor=none;" parent="1" vertex="1">
          <mxGeometry x="100" y="395" width="60" height="30" as="geometry" />
        </mxCell>
        <mxCell id="1xobN1D2nv92VW4AulpK-23" style="edgeStyle=orthogonalEdgeStyle;rounded=0;orthogonalLoop=1;jettySize=auto;html=1;" edge="1" parent="1" source="1xobN1D2nv92VW4AulpK-1" target="i4DZE0jsaXp2JOjDbHN6-4">
          <mxGeometry relative="1" as="geometry">
            <Array as="points">
              <mxPoint x="490" y="550" />
            </Array>
          </mxGeometry>
        </mxCell>
        <mxCell id="1xobN1D2nv92VW4AulpK-1" value="notyfier python" style="whiteSpace=wrap;html=1;" vertex="1" parent="1">
          <mxGeometry x="330" y="520" width="120" height="60" as="geometry" />
        </mxCell>
        <mxCell id="1xobN1D2nv92VW4AulpK-22" style="edgeStyle=orthogonalEdgeStyle;rounded=0;orthogonalLoop=1;jettySize=auto;html=1;" edge="1" parent="1" source="1xobN1D2nv92VW4AulpK-2" target="1xobN1D2nv92VW4AulpK-1">
          <mxGeometry relative="1" as="geometry" />
        </mxCell>
        <mxCell id="1xobN1D2nv92VW4AulpK-2" value="sheduler go" style="whiteSpace=wrap;html=1;" vertex="1" parent="1">
          <mxGeometry x="170" y="520" width="120" height="60" as="geometry" />
        </mxCell>
        <mxCell id="1xobN1D2nv92VW4AulpK-18" value="rabbitmq" style="edgeLabel;html=1;align=center;verticalAlign=middle;resizable=0;points=[];rotation=-90;" vertex="1" connectable="0" parent="1">
          <mxGeometry x="229.99666666666673" y="480" as="geometry" />
        </mxCell>
        <mxCell id="1xobN1D2nv92VW4AulpK-19" value="rabbitmq" style="edgeLabel;html=1;align=center;verticalAlign=middle;resizable=0;points=[];rotation=-90;" vertex="1" connectable="0" parent="1">
          <mxGeometry x="389.9966666666667" y="480" as="geometry" />
        </mxCell>
        <mxCell id="1xobN1D2nv92VW4AulpK-20" value="rabbitmq" style="edgeLabel;html=1;align=center;verticalAlign=middle;resizable=0;points=[];" vertex="1" connectable="0" parent="1">
          <mxGeometry x="299.997619047619" y="530" as="geometry">
            <mxPoint x="1" y="9" as="offset" />
          </mxGeometry>
        </mxCell>
        <mxCell id="1xobN1D2nv92VW4AulpK-21" value="microservices" style="text;html=1;align=center;verticalAlign=middle;resizable=0;points=[];autosize=1;strokeColor=none;fillColor=none;" vertex="1" parent="1">
          <mxGeometry x="60" y="535" width="100" height="30" as="geometry" />
        </mxCell>
        <mxCell id="1xobN1D2nv92VW4AulpK-24" value="core" style="text;html=1;align=center;verticalAlign=middle;resizable=0;points=[];autosize=1;strokeColor=none;fillColor=none;" vertex="1" parent="1">
          <mxGeometry x="240" y="410" width="50" height="30" as="geometry" />
        </mxCell>
        <mxCell id="1xobN1D2nv92VW4AulpK-25" value="core" style="text;html=1;align=center;verticalAlign=middle;resizable=0;points=[];autosize=1;strokeColor=none;fillColor=none;" vertex="1" parent="1">
          <mxGeometry x="400" y="410" width="50" height="30" as="geometry" />
        </mxCell>
        <mxCell id="1xobN1D2nv92VW4AulpK-26" value="core" style="text;html=1;align=center;verticalAlign=middle;resizable=0;points=[];autosize=1;strokeColor=none;fillColor=none;" vertex="1" parent="1">
          <mxGeometry x="400" y="550" width="50" height="30" as="geometry" />
        </mxCell>
        <mxCell id="1xobN1D2nv92VW4AulpK-27" value="core" style="text;html=1;align=center;verticalAlign=middle;resizable=0;points=[];autosize=1;strokeColor=none;fillColor=none;" vertex="1" parent="1">
          <mxGeometry x="525" y="370" width="50" height="30" as="geometry" />
        </mxCell>
        <mxCell id="1xobN1D2nv92VW4AulpK-28" value="SomeService" style="whiteSpace=wrap;html=1;spacingLeft=0;spacingBottom=20;" vertex="1" parent="1">
          <mxGeometry x="157.5" y="640" width="120" height="60" as="geometry" />
        </mxCell>
        <mxCell id="1xobN1D2nv92VW4AulpK-29" value="Unit Of Work" style="shape=trapezoid;perimeter=trapezoidPerimeter;whiteSpace=wrap;html=1;fixedSize=1;fontSize=10;" vertex="1" parent="1">
          <mxGeometry x="167.5" y="680" width="100" height="35" as="geometry" />
        </mxCell>
        <mxCell id="1xobN1D2nv92VW4AulpK-30" value="repo" style="shape=process;whiteSpace=wrap;html=1;backgroundOutline=1;rotation=90;fontSize=8;" vertex="1" parent="1">
          <mxGeometry x="150" y="732.5" width="70" height="35" as="geometry" />
        </mxCell>
        <mxCell id="1xobN1D2nv92VW4AulpK-31" value="repo" style="shape=process;whiteSpace=wrap;html=1;backgroundOutline=1;rotation=90;fontSize=8;" vertex="1" parent="1">
          <mxGeometry x="185" y="732.5" width="70" height="35" as="geometry" />
        </mxCell>
        <mxCell id="1xobN1D2nv92VW4AulpK-32" value="repo" style="shape=process;whiteSpace=wrap;html=1;backgroundOutline=1;rotation=90;fontSize=8;" vertex="1" parent="1">
          <mxGeometry x="217.5" y="735" width="70" height="30" as="geometry" />
        </mxCell>
        <mxCell id="1xobN1D2nv92VW4AulpK-36" value="connector" style="rounded=0;whiteSpace=wrap;html=1;fontSize=8;" vertex="1" parent="1">
          <mxGeometry x="167.5" y="785" width="70" height="25" as="geometry" />
        </mxCell>
        <mxCell id="1xobN1D2nv92VW4AulpK-37" value="conn..." style="rounded=0;whiteSpace=wrap;html=1;fontSize=8;" vertex="1" parent="1">
          <mxGeometry x="237.5" y="785" width="30" height="25" as="geometry" />
        </mxCell>
        <mxCell id="1xobN1D2nv92VW4AulpK-38" value="data realization" style="shape=document;whiteSpace=wrap;html=1;boundedLbl=1;fontSize=8;" vertex="1" parent="1">
          <mxGeometry x="167.5" y="810" width="70" height="40" as="geometry" />
        </mxCell>
        <mxCell id="1xobN1D2nv92VW4AulpK-39" value="..." style="shape=document;whiteSpace=wrap;html=1;boundedLbl=1;fontSize=8;" vertex="1" parent="1">
          <mxGeometry x="237.5" y="810" width="30" height="40" as="geometry" />
        </mxCell>
        <mxCell id="1xobN1D2nv92VW4AulpK-40" value="UserService" style="whiteSpace=wrap;html=1;spacingLeft=0;spacingBottom=20;" vertex="1" parent="1">
          <mxGeometry x="340" y="640" width="120" height="60" as="geometry" />
        </mxCell>
        <mxCell id="1xobN1D2nv92VW4AulpK-41" value="Unit Of Work" style="shape=trapezoid;perimeter=trapezoidPerimeter;whiteSpace=wrap;html=1;fixedSize=1;fontSize=10;" vertex="1" parent="1">
          <mxGeometry x="325" y="680" width="150" height="35" as="geometry" />
        </mxCell>
        <mxCell id="1xobN1D2nv92VW4AulpK-42" value="user" style="shape=process;whiteSpace=wrap;html=1;backgroundOutline=1;rotation=90;fontSize=8;" vertex="1" parent="1">
          <mxGeometry x="316.25" y="723.76" width="70" height="52.49" as="geometry" />
        </mxCell>
        <mxCell id="1xobN1D2nv92VW4AulpK-43" value="authcode" style="shape=process;whiteSpace=wrap;html=1;backgroundOutline=1;rotation=90;fontSize=8;" vertex="1" parent="1">
          <mxGeometry x="371.5" y="721" width="70" height="59" as="geometry" />
        </mxCell>
        <mxCell id="1xobN1D2nv92VW4AulpK-44" value="authnotify" style="shape=process;whiteSpace=wrap;html=1;backgroundOutline=1;rotation=90;fontSize=8;" vertex="1" parent="1">
          <mxGeometry x="416.5" y="727" width="70" height="47.5" as="geometry" />
        </mxCell>
        <mxCell id="1xobN1D2nv92VW4AulpK-45" value="PostgresConnector" style="rounded=0;whiteSpace=wrap;html=1;fontSize=5;" vertex="1" parent="1">
          <mxGeometry x="325" y="785" width="52.5" height="25" as="geometry" />
        </mxCell>
        <mxCell id="1xobN1D2nv92VW4AulpK-46" value="RedisConnector" style="rounded=0;whiteSpace=wrap;html=1;fontSize=5;verticalAlign=middle;" vertex="1" parent="1">
          <mxGeometry x="377.5" y="785" width="50" height="25" as="geometry" />
        </mxCell>
        <mxCell id="1xobN1D2nv92VW4AulpK-47" value="postgresql" style="shape=document;whiteSpace=wrap;html=1;boundedLbl=1;fontSize=8;" vertex="1" parent="1">
          <mxGeometry x="325" y="810" width="52" height="40" as="geometry" />
        </mxCell>
        <mxCell id="1xobN1D2nv92VW4AulpK-49" value="RabbitConnector" style="rounded=0;whiteSpace=wrap;html=1;fontSize=5;" vertex="1" parent="1">
          <mxGeometry x="427.5" y="785" width="48" height="25" as="geometry" />
        </mxCell>
        <mxCell id="1xobN1D2nv92VW4AulpK-51" value="redis" style="shape=document;whiteSpace=wrap;html=1;boundedLbl=1;fontSize=8;" vertex="1" parent="1">
          <mxGeometry x="377" y="810" width="50" height="40" as="geometry" />
        </mxCell>
        <mxCell id="1xobN1D2nv92VW4AulpK-52" value="rabbitmq" style="shape=document;whiteSpace=wrap;html=1;boundedLbl=1;fontSize=8;" vertex="1" parent="1">
          <mxGeometry x="427.5" y="810" width="48" height="40" as="geometry" />
        </mxCell>
        <mxCell id="1xobN1D2nv92VW4AulpK-53" value="data realization (postgresql, redis, rabbitmq)" style="rounded=0;whiteSpace=wrap;html=1;" vertex="1" parent="1">
          <mxGeometry x="556.25" y="820" width="280" height="60" as="geometry" />
        </mxCell>
        <mxCell id="1xobN1D2nv92VW4AulpK-54" value="&amp;nbsp; &amp;nbsp; &amp;nbsp; &amp;nbsp; &amp;nbsp; &amp;nbsp; connector (&lt;font style=&quot;font-size: 12px;&quot;&gt;PostgresConnector&lt;/font&gt;)" style="rounded=0;whiteSpace=wrap;html=1;" vertex="1" parent="1">
          <mxGeometry x="556.25" y="760" width="280" height="60" as="geometry" />
        </mxCell>
        <mxCell id="1xobN1D2nv92VW4AulpK-55" value="&lt;div&gt;&lt;br&gt;&lt;/div&gt;&lt;div&gt;&lt;br&gt;&lt;/div&gt;repo (&lt;font style=&quot;font-size: 12px;&quot;&gt;UserRepo&lt;/font&gt;)" style="rounded=0;whiteSpace=wrap;html=1;" vertex="1" parent="1">
          <mxGeometry x="556.25" y="670" width="280" height="90" as="geometry" />
        </mxCell>
        <mxCell id="1xobN1D2nv92VW4AulpK-56" value="lib (sqlalchemy, ...)" style="whiteSpace=wrap;html=1;rotation=270;" vertex="1" parent="1">
          <mxGeometry x="525" y="718.25" width="130" height="52.5" as="geometry" />
        </mxCell>
        <mxCell id="1xobN1D2nv92VW4AulpK-57" value="model (UserModel)" style="rounded=0;whiteSpace=wrap;html=1;rotation=0;fontSize=10;" vertex="1" parent="1">
          <mxGeometry x="690" y="670" width="146.25" height="40" as="geometry" />
        </mxCell>
        <mxCell id="1xobN1D2nv92VW4AulpK-58" value="UnitOfWork" style="whiteSpace=wrap;html=1;" vertex="1" parent="1">
          <mxGeometry x="556.25" y="630" width="280" height="40" as="geometry" />
        </mxCell>
        <mxCell id="1xobN1D2nv92VW4AulpK-59" value="Service (UserService)" style="whiteSpace=wrap;html=1;verticalAlign=top;" vertex="1" parent="1">
          <mxGeometry x="556.25" y="560" width="280" height="70" as="geometry" />
        </mxCell>
        <mxCell id="1xobN1D2nv92VW4AulpK-60" value="serviceMethod (login)" style="whiteSpace=wrap;html=1;" vertex="1" parent="1">
          <mxGeometry x="576.25" y="590" width="240" height="40" as="geometry" />
        </mxCell>
        <mxCell id="1xobN1D2nv92VW4AulpK-61" value="request (http)" style="whiteSpace=wrap;html=1;" vertex="1" parent="1">
          <mxGeometry x="556.25" y="480" width="280" height="40" as="geometry" />
        </mxCell>
        <mxCell id="1xobN1D2nv92VW4AulpK-62" value="backend (rest)" style="whiteSpace=wrap;html=1;" vertex="1" parent="1">
          <mxGeometry x="556.25" y="520" width="280" height="40" as="geometry" />
        </mxCell>
        <mxCell id="1xobN1D2nv92VW4AulpK-63" value="client (site)" style="whiteSpace=wrap;html=1;" vertex="1" parent="1">
          <mxGeometry x="556.25" y="440" width="280" height="40" as="geometry" />
        </mxCell>
        <mxCell id="1xobN1D2nv92VW4AulpK-64" value="user interface" style="text;html=1;align=center;verticalAlign=middle;resizable=0;points=[];autosize=1;strokeColor=none;fillColor=none;" vertex="1" parent="1">
          <mxGeometry x="840" y="445" width="100" height="30" as="geometry" />
        </mxCell>
        <mxCell id="1xobN1D2nv92VW4AulpK-65" value="client`s request" style="text;html=1;align=center;verticalAlign=middle;resizable=0;points=[];autosize=1;strokeColor=none;fillColor=none;" vertex="1" parent="1">
          <mxGeometry x="840" y="485" width="100" height="30" as="geometry" />
        </mxCell>
        <mxCell id="1xobN1D2nv92VW4AulpK-66" value="request recipient" style="text;html=1;align=center;verticalAlign=middle;resizable=0;points=[];autosize=1;strokeColor=none;fillColor=none;" vertex="1" parent="1">
          <mxGeometry x="835" y="525" width="110" height="30" as="geometry" />
        </mxCell>
        <mxCell id="1xobN1D2nv92VW4AulpK-67" value="business logic" style="text;html=1;align=center;verticalAlign=middle;resizable=0;points=[];autosize=1;strokeColor=none;fillColor=none;" vertex="1" parent="1">
          <mxGeometry x="840" y="580" width="100" height="30" as="geometry" />
        </mxCell>
        <mxCell id="1xobN1D2nv92VW4AulpK-68" value="manages connections&amp;nbsp;&lt;div&gt;and repos&lt;/div&gt;" style="text;html=1;align=center;verticalAlign=middle;resizable=0;points=[];autosize=1;strokeColor=none;fillColor=none;" vertex="1" parent="1">
          <mxGeometry x="835" y="630" width="140" height="40" as="geometry" />
        </mxCell>
        <mxCell id="1xobN1D2nv92VW4AulpK-69" value="entity model" style="text;html=1;align=center;verticalAlign=middle;resizable=0;points=[];autosize=1;strokeColor=none;fillColor=none;" vertex="1" parent="1">
          <mxGeometry x="836.25" y="675" width="90" height="30" as="geometry" />
        </mxCell>
        <mxCell id="1xobN1D2nv92VW4AulpK-70" value="abstraction of model&lt;div&gt;data manipulation&lt;/div&gt;" style="text;html=1;align=center;verticalAlign=middle;resizable=0;points=[];autosize=1;strokeColor=none;fillColor=none;" vertex="1" parent="1">
          <mxGeometry x="835" y="715.25" width="130" height="40" as="geometry" />
        </mxCell>
        <mxCell id="1xobN1D2nv92VW4AulpK-71" value="data" style="text;html=1;align=center;verticalAlign=middle;resizable=0;points=[];autosize=1;strokeColor=none;fillColor=none;" vertex="1" parent="1">
          <mxGeometry x="836.25" y="835" width="50" height="30" as="geometry" />
        </mxCell>
        <mxCell id="1xobN1D2nv92VW4AulpK-72" value="abstraction over&lt;div&gt;data connection&lt;/div&gt;" style="text;html=1;align=center;verticalAlign=middle;resizable=0;points=[];autosize=1;strokeColor=none;fillColor=none;" vertex="1" parent="1">
          <mxGeometry x="835" y="770" width="110" height="40" as="geometry" />
        </mxCell>
      </root>
    </mxGraphModel>
  </diagram>
</mxfile>
